# Blender v2.79 (sub 0) OBJ File: ''
# www.blender.org
mtllib truck.mtl
o mesh81506427
v 0.078249 0.024898 -0.020816
v 0.078249 0.024898 0.019184
v 0.078249 0.004898 0.019184
v 0.078249 0.004898 -0.020816
v -0.031751 0.004898 0.019184
v -0.031751 0.024898 0.019184
v -0.031751 0.024898 -0.020816
v -0.031751 0.004898 -0.020816
v 0.098249 0.004898 -0.050816
v 0.098249 0.004898 0.049184
v 0.098249 -0.025102 0.049184
v 0.098249 -0.025102 -0.050816
v -0.105409 -0.025102 0.049184
v -0.105409 0.004898 0.049184
v -0.105409 0.004898 -0.050816
v -0.105409 -0.025102 -0.050816
v -0.043580 0.004898 -0.050816
v -0.043580 0.004898 0.049184
v -0.074495 0.004898 -0.050816
v -0.074495 0.004898 0.049184
v -0.043580 0.049898 0.049184
v -0.074495 0.049898 0.049184
v -0.043580 0.049898 -0.050816
v -0.043580 0.074898 -0.050816
v -0.043580 0.074898 0.049184
v -0.105409 0.074898 -0.050816
v -0.105409 0.074898 0.049184
v -0.105409 0.049898 0.049184
v -0.105409 0.049898 -0.050816
v -0.074495 0.049898 -0.050816
v -0.071751 -0.005102 -0.040816
v -0.061751 -0.007782 -0.040816
v -0.061751 -0.007782 -0.057959
v -0.071751 -0.005102 -0.057959
v -0.054430 -0.015102 -0.040816
v -0.054430 -0.015102 -0.057959
v -0.051751 -0.025102 -0.040816
v -0.051751 -0.025102 -0.057959
v -0.054430 -0.035102 -0.040816
v -0.054430 -0.035102 -0.057959
v -0.061751 -0.042422 -0.040816
v -0.061751 -0.042422 -0.057959
v -0.071751 -0.045102 -0.040816
v -0.071751 -0.045102 -0.057959
v -0.081751 -0.042422 -0.040817
v -0.081751 -0.042422 -0.057959
v -0.089071 -0.035102 -0.040817
v -0.089071 -0.035102 -0.057959
v -0.091751 -0.025102 -0.040817
v -0.091751 -0.025102 -0.057959
v -0.089071 -0.015102 -0.040817
v -0.089071 -0.015102 -0.057959
v -0.081751 -0.007782 -0.040816
v -0.081751 -0.007782 -0.057959
v -0.071751 -0.005102 0.059184
v -0.061751 -0.007782 0.059184
v -0.061751 -0.007782 0.042041
v -0.071751 -0.005102 0.042041
v -0.054431 -0.015102 0.059184
v -0.054431 -0.015102 0.042041
v -0.051751 -0.025102 0.059184
v -0.051751 -0.025102 0.042041
v -0.054431 -0.035102 0.059184
v -0.054431 -0.035102 0.042041
v -0.061751 -0.042422 0.059184
v -0.061751 -0.042422 0.042041
v -0.071751 -0.045102 0.059184
v -0.071751 -0.045102 0.042041
v -0.081751 -0.042422 0.059184
v -0.081751 -0.042422 0.042041
v -0.089072 -0.035102 0.059184
v -0.089072 -0.035102 0.042041
v -0.091751 -0.025102 0.059184
v -0.091751 -0.025102 0.042041
v -0.089072 -0.015102 0.059184
v -0.089072 -0.015102 0.042041
v -0.081751 -0.007782 0.059184
v -0.081751 -0.007782 0.042041
v 0.048249 -0.002245 -0.040816
v 0.058249 -0.004924 -0.040816
v 0.058249 -0.004924 -0.057959
v 0.048249 -0.002245 -0.057959
v 0.065569 -0.012245 -0.040816
v 0.065569 -0.012245 -0.057959
v 0.068249 -0.022245 -0.040816
v 0.068249 -0.022245 -0.057959
v 0.065569 -0.032245 -0.040816
v 0.065569 -0.032245 -0.057959
v 0.058249 -0.039565 -0.040816
v 0.058249 -0.039565 -0.057959
v 0.048249 -0.042245 -0.040816
v 0.048249 -0.042245 -0.057959
v 0.038249 -0.039565 -0.040817
v 0.038249 -0.039565 -0.057959
v 0.030929 -0.032245 -0.040817
v 0.030929 -0.032245 -0.057959
v 0.028249 -0.022245 -0.040817
v 0.028249 -0.022245 -0.057959
v 0.030929 -0.012245 -0.040817
v 0.030929 -0.012245 -0.057959
v 0.038249 -0.004924 -0.040816
v 0.038249 -0.004924 -0.057959
v 0.087334 0.094898 -0.040816
v 0.087334 0.094898 0.039184
v 0.087334 0.014898 0.039184
v 0.087334 0.014898 -0.040816
v -0.032665 0.014898 0.039184
v -0.032665 0.094898 0.039184
v -0.032665 0.094898 -0.040816
v -0.032665 0.014898 -0.040816
v 0.048249 -0.002245 0.059184
v 0.058249 -0.004924 0.059184
v 0.058249 -0.004924 0.042041
v 0.048249 -0.002245 0.042041
v 0.065569 -0.012245 0.059184
v 0.065569 -0.012245 0.042041
v 0.068249 -0.022245 0.059184
v 0.068249 -0.022245 0.042041
v 0.065569 -0.032245 0.059184
v 0.065569 -0.032245 0.042041
v 0.058249 -0.039565 0.059184
v 0.058249 -0.039565 0.042041
v 0.048249 -0.042245 0.059184
v 0.048249 -0.042245 0.042041
v 0.038249 -0.039565 0.059184
v 0.038249 -0.039565 0.042041
v 0.030928 -0.032245 0.059184
v 0.030928 -0.032245 0.042041
v 0.028249 -0.022245 0.059184
v 0.028249 -0.022245 0.042041
v 0.030928 -0.012245 0.059184
v 0.030928 -0.012245 0.042041
v 0.038249 -0.004924 0.059184
v 0.038249 -0.004924 0.042041
vt 0.135196 0.036153
vt 0.138451 0.033828
vt 0.137288 0.032200
vt 0.134034 0.034525
vt -0.137288 0.032200
vt -0.138451 0.033828
vt -0.135196 0.036153
vt -0.134034 0.034525
vt 0.015942 -0.231870
vt 0.012243 -0.242229
vt 0.008476 -0.240884
vt 0.012175 -0.230525
vt -0.008476 -0.240884
vt -0.012243 -0.242229
vt -0.015942 -0.231870
vt -0.012175 -0.230525
vt -0.194985 -0.152947
vt -0.196774 -0.152053
vt -0.191855 -0.142214
vt -0.190066 -0.143108
vt 0.191855 -0.142214
vt 0.196774 -0.152053
vt 0.194985 -0.152947
vt 0.190066 -0.143108
vt 0.131592 0.036269
vt 0.139730 0.030457
vt 0.137986 0.028016
vt 0.129849 0.033828
vt -0.137986 0.028016
vt -0.139730 0.030457
vt -0.131592 0.036269
vt -0.129849 0.033828
vt 0.019440 -0.230996
vt 0.012590 -0.250175
vt 0.003173 -0.246812
vt 0.010023 -0.227632
vt -0.005253 -0.240989
vt -0.014670 -0.244352
vt -0.019440 -0.230996
vt -0.010023 -0.227632
vt -0.195596 -0.160877
vt -0.198279 -0.159535
vt -0.196897 -0.156770
vt -0.195514 -0.154005
vt -0.189171 -0.141319
vt -0.186488 -0.142661
vt 0.189171 -0.141319
vt 0.195514 -0.154005
vt 0.196897 -0.156770
vt 0.198279 -0.159535
vt 0.195596 -0.160877
vt 0.186488 -0.142661
vt 0.199539 -0.151993
vt 0.200922 -0.154758
vt 0.134209 0.039931
vt 0.135662 0.041966
vt 0.143799 0.036153
vt 0.142346 0.034119
vt 0.139730 0.030457
vt 0.131593 0.036269
vt -0.005253 -0.240989
vt -0.003173 -0.246812
vt -0.012590 -0.250175
vt -0.014670 -0.244353
vt -0.142346 0.034119
vt -0.143799 0.036153
vt -0.135662 0.041966
vt -0.134209 0.039931
vt -0.200922 -0.154758
vt -0.202304 -0.157523
vt -0.204540 -0.156405
vt -0.201775 -0.150875
vt -0.199539 -0.151993
vt 0.201775 -0.150875
vt 0.204540 -0.156405
vt 0.202304 -0.157523
vt 0.017132 -0.261698
vt 0.016725 -0.260746
vt 0.018302 -0.260073
vt 0.018708 -0.261025
vt 0.105494 -0.226855
vt 0.104758 -0.226127
vt 0.105964 -0.224909
vt 0.106700 -0.225637
vt 0.180939 0.010839
vt 0.180062 0.010289
vt 0.179151 0.011741
vt 0.180028 0.012291
vt 0.096172 -0.000803
vt 0.095723 -0.001736
vt 0.094178 -0.000992
vt 0.094627 -0.000059
vt 0.054410 -0.111040
vt 0.054080 -0.112021
vt 0.052455 -0.111474
vt 0.052785 -0.110493
vt 0.022868 -0.210514
vt 0.022547 -0.211498
vt 0.020918 -0.210967
vt 0.021239 -0.209982
vt -0.016726 -0.260746
vt -0.017133 -0.261698
vt -0.018709 -0.261025
vt -0.018303 -0.260073
vt -0.104759 -0.226127
vt -0.105494 -0.226855
vt -0.106701 -0.225636
vt -0.105965 -0.224908
vt -0.180062 0.010291
vt -0.180938 0.010842
vt -0.180027 0.012294
vt -0.179150 0.011743
vt -0.095723 -0.001736
vt -0.096172 -0.000803
vt -0.094627 -0.000059
vt -0.094178 -0.000992
vt -0.054080 -0.112022
vt -0.054411 -0.111041
vt -0.052786 -0.110494
vt -0.052456 -0.111475
vt -0.022547 -0.211499
vt -0.022868 -0.210514
vt -0.021238 -0.209983
vt -0.020917 -0.210967
vt -0.195880 -0.156972
vt -0.195193 -0.156197
vt -0.194210 -0.155870
vt -0.193196 -0.156078
vt -0.192422 -0.156764
vt -0.192094 -0.157746
vt -0.192302 -0.158761
vt -0.192989 -0.159535
vt -0.193971 -0.159863
vt -0.194985 -0.159655
vt -0.195760 -0.158968
vt -0.196087 -0.157986
vt 0.196087 -0.157986
vt 0.195760 -0.158968
vt 0.194985 -0.159655
vt 0.193971 -0.159863
vt 0.192989 -0.159535
vt 0.192302 -0.158761
vt 0.192094 -0.157746
vt 0.192422 -0.156764
vt 0.193196 -0.156078
vt 0.194210 -0.155870
vt 0.195193 -0.156197
vt 0.195880 -0.156972
vt 0.007935 -0.265624
vt 0.007529 -0.264672
vt 0.009105 -0.263999
vt 0.009512 -0.264951
vt 0.098459 -0.233962
vt 0.097723 -0.233234
vt 0.098929 -0.232015
vt 0.099665 -0.232744
vt 0.186255 0.002369
vt 0.185378 0.001819
vt 0.184466 0.003271
vt 0.185343 0.003821
vt 0.105182 -0.005141
vt 0.104733 -0.006074
vt 0.103188 -0.005330
vt 0.103637 -0.004397
vt 0.063887 -0.114231
vt 0.063557 -0.115212
vt 0.061932 -0.114665
vt 0.062263 -0.113684
vt 0.032376 -0.213614
vt 0.032055 -0.214598
vt 0.030425 -0.214067
vt 0.030746 -0.213083
vt -0.007529 -0.264672
vt -0.007936 -0.265624
vt -0.009512 -0.264951
vt -0.009106 -0.263999
vt -0.097724 -0.233233
vt -0.098459 -0.233961
vt -0.099665 -0.232743
vt -0.098930 -0.232015
vt -0.185377 0.001821
vt -0.186254 0.002372
vt -0.185343 0.003824
vt -0.184466 0.003273
vt -0.104733 -0.006074
vt -0.105182 -0.005141
vt -0.103637 -0.004398
vt -0.103188 -0.005330
vt -0.063558 -0.115213
vt -0.063888 -0.114232
vt -0.062263 -0.113685
vt -0.061933 -0.114666
vt -0.032055 -0.214599
vt -0.032376 -0.213614
vt -0.030746 -0.213083
vt -0.030425 -0.214067
vt -0.195880 -0.156972
vt -0.195193 -0.156197
vt -0.194210 -0.155870
vt -0.193196 -0.156078
vt -0.192422 -0.156764
vt -0.192094 -0.157746
vt -0.192302 -0.158761
vt -0.192989 -0.159535
vt -0.193971 -0.159863
vt -0.194985 -0.159655
vt -0.195760 -0.158968
vt -0.196087 -0.157986
vt 0.196087 -0.157986
vt 0.195760 -0.158968
vt 0.194985 -0.159655
vt 0.193971 -0.159863
vt 0.192989 -0.159535
vt 0.192302 -0.158761
vt 0.192094 -0.157746
vt 0.192422 -0.156764
vt 0.193196 -0.156078
vt 0.194210 -0.155870
vt 0.195193 -0.156197
vt 0.195880 -0.156972
vt 0.012610 -0.251106
vt 0.012203 -0.250154
vt 0.013780 -0.249480
vt 0.014186 -0.250433
vt 0.099607 -0.221028
vt 0.098871 -0.220299
vt 0.100077 -0.219081
vt 0.100813 -0.219810
vt 0.178542 0.009335
vt 0.177665 0.008785
vt 0.176754 0.010237
vt 0.177631 0.010787
vt 0.097639 0.002244
vt 0.097190 0.001311
vt 0.095645 0.002055
vt 0.096094 0.002988
vt 0.057182 -0.102807
vt 0.056852 -0.103788
vt 0.055227 -0.103241
vt 0.055558 -0.102260
vt 0.026484 -0.199424
vt 0.026164 -0.200408
vt 0.024534 -0.199876
vt 0.024855 -0.198892
vt -0.012204 -0.250154
vt -0.012610 -0.251106
vt -0.014187 -0.250433
vt -0.013781 -0.249481
vt -0.098872 -0.220299
vt -0.099608 -0.221027
vt -0.100814 -0.219809
vt -0.100078 -0.219081
vt -0.177665 0.008787
vt -0.178541 0.009337
vt -0.177630 0.010789
vt -0.176753 0.010239
vt -0.097190 0.001311
vt -0.097639 0.002244
vt -0.096094 0.002988
vt -0.095645 0.002055
vt -0.056853 -0.103789
vt -0.057183 -0.102807
vt -0.055558 -0.102260
vt -0.055228 -0.103242
vt -0.026163 -0.200408
vt -0.026484 -0.199424
vt -0.024854 -0.198893
vt -0.024534 -0.199877
vt -0.190768 -0.146111
vt -0.190082 -0.145336
vt -0.189100 -0.145009
vt -0.188085 -0.145217
vt -0.187311 -0.145903
vt -0.186983 -0.146886
vt -0.187191 -0.147900
vt -0.187878 -0.148675
vt -0.188860 -0.149002
vt -0.189874 -0.148794
vt -0.190649 -0.148107
vt -0.190976 -0.147125
vt 0.190976 -0.147125
vt 0.190649 -0.148107
vt 0.189874 -0.148794
vt 0.188860 -0.149002
vt 0.187878 -0.148675
vt 0.187191 -0.147900
vt 0.186983 -0.146886
vt 0.187311 -0.145903
vt 0.188085 -0.145217
vt 0.189100 -0.145009
vt 0.190082 -0.145336
vt 0.190768 -0.146111
vt 0.003413 -0.255032
vt 0.003006 -0.254080
vt 0.004583 -0.253407
vt 0.004989 -0.254359
vt 0.092572 -0.228134
vt 0.091836 -0.227406
vt 0.093042 -0.226188
vt 0.093778 -0.226916
vt 0.183858 0.000865
vt 0.182981 0.000315
vt 0.182069 0.001767
vt 0.182946 0.002317
vt 0.106649 -0.002094
vt 0.106200 -0.003027
vt 0.104655 -0.002283
vt 0.105104 -0.001350
vt 0.066660 -0.105998
vt 0.066329 -0.106979
vt 0.064705 -0.106432
vt 0.065035 -0.105451
vt 0.035992 -0.202523
vt 0.035671 -0.203508
vt 0.034041 -0.202976
vt 0.034362 -0.201992
vt -0.003007 -0.254080
vt -0.003414 -0.255032
vt -0.004990 -0.254359
vt -0.004584 -0.253407
vt -0.091837 -0.227406
vt -0.092573 -0.228134
vt -0.093779 -0.226916
vt -0.093043 -0.226187
vt -0.182980 0.000317
vt -0.183857 0.000867
vt -0.182946 0.002319
vt -0.182069 0.001769
vt -0.106200 -0.003027
vt -0.106649 -0.002094
vt -0.105104 -0.001350
vt -0.104655 -0.002283
vt -0.066330 -0.106980
vt -0.066660 -0.105999
vt -0.065036 -0.105452
vt -0.064705 -0.106433
vt -0.035671 -0.203508
vt -0.035992 -0.202524
vt -0.034362 -0.201992
vt -0.034041 -0.202977
vt -0.190768 -0.146111
vt -0.190082 -0.145336
vt -0.189100 -0.145009
vt -0.188085 -0.145217
vt -0.187311 -0.145903
vt -0.186983 -0.146886
vt -0.187191 -0.147900
vt -0.187878 -0.148675
vt -0.188860 -0.149002
vt -0.189874 -0.148794
vt -0.190649 -0.148107
vt -0.190976 -0.147125
vt 0.190976 -0.147125
vt 0.190649 -0.148107
vt 0.189874 -0.148794
vt 0.188860 -0.149002
vt 0.187878 -0.148675
vt 0.187191 -0.147900
vt 0.186983 -0.146886
vt 0.187311 -0.145903
vt 0.188085 -0.145217
vt 0.189100 -0.145009
vt 0.190082 -0.145336
vt 0.190768 -0.146111
vt 0.137637 0.043012
vt 0.144147 0.038362
vt 0.139497 0.031852
vt 0.132987 0.036502
vt -0.139497 0.031852
vt -0.144147 0.038362
vt -0.137637 0.043012
vt -0.132987 0.036502
vt 0.018131 -0.231687
vt 0.014095 -0.242988
vt 0.006561 -0.240297
vt 0.010597 -0.228997
vt -0.006561 -0.240297
vt -0.014095 -0.242988
vt -0.018131 -0.231687
vt -0.010597 -0.228997
vt -0.195920 -0.152582
vt -0.203076 -0.149004
vt -0.197709 -0.138271
vt -0.190554 -0.141849
vt 0.197709 -0.138271
vt 0.203076 -0.149004
vt 0.195920 -0.152582
vt 0.190554 -0.141848
vn 1.0000 0.0000 0.0000
vn -1.0000 -0.0000 0.0000
vn 0.0000 -1.0000 -0.0000
vn -0.0000 1.0000 0.0000
vn 0.0000 0.0000 -1.0000
vn -0.0000 -0.0000 1.0000
vn 0.2588 0.9659 0.0000
vn 0.7071 0.7071 0.0000
vn 0.9659 0.2588 0.0000
vn 0.9659 -0.2588 -0.0000
vn 0.7071 -0.7071 -0.0000
vn 0.2588 -0.9659 -0.0000
vn -0.2588 -0.9659 -0.0000
vn -0.7071 -0.7071 -0.0000
vn -0.9659 -0.2588 -0.0000
vn -0.9659 0.2588 0.0000
vn -0.7071 0.7071 0.0000
vn -0.2588 0.9659 0.0000
usemtl mat12
s 1
f 1/1/1 2/2/1 3/3/1 4/4/1
f 5/5/2 6/6/2 7/7/2 8/8/2
f 3/9/3 5/10/3 8/11/3 4/12/3
f 7/13/4 6/14/4 2/15/4 1/16/4
f 8/17/5 7/18/5 1/19/5 4/20/5
f 2/21/6 6/22/6 5/23/6 3/24/6
usemtl mat15
f 9/25/1 10/26/1 11/27/1 12/28/1
f 13/29/2 14/30/2 15/31/2 16/32/2
f 11/33/3 13/34/3 16/35/3 12/36/3
f 17/37/4 18/38/4 10/39/4 9/40/4
f 16/41/5 15/42/5 19/43/5 17/44/5 9/45/5 12/46/5
f 10/47/6 18/48/6 20/49/6 14/50/6 13/51/6 11/52/6
f 21/53/6 22/54/6 20/49/6 18/48/6
f 23/55/1 24/56/1 25/57/1 21/58/1 18/59/1 17/60/1
f 24/61/4 26/62/4 27/63/4 25/64/4
f 28/65/2 27/66/2 26/67/2 29/68/2
f 30/69/5 29/70/5 26/71/5 24/72/5 23/73/5
f 22/54/6 21/53/6 25/74/6 27/75/6 28/76/6
f 30/69/5 23/73/5 17/44/5 19/43/5
usemtl mat17
f 28/65/2 29/68/2 15/31/2 14/30/2
f 29/70/5 30/69/5 19/43/5 15/42/5
f 22/54/6 28/76/6 14/50/6 20/49/6
f 31/77/7 32/78/7 33/79/7 34/80/7
f 32/81/8 35/82/8 36/83/8 33/84/8
f 35/85/9 37/86/9 38/87/9 36/88/9
f 37/89/10 39/90/10 40/91/10 38/92/10
f 39/93/11 41/94/11 42/95/11 40/96/11
f 41/97/12 43/98/12 44/99/12 42/100/12
f 43/101/13 45/102/13 46/103/13 44/104/13
f 45/105/14 47/106/14 48/107/14 46/108/14
f 47/109/15 49/110/15 50/111/15 48/112/15
f 49/113/16 51/114/16 52/115/16 50/116/16
f 51/117/17 53/118/17 54/119/17 52/120/17
f 53/121/18 31/122/18 34/123/18 54/124/18
f 34/125/5 33/126/5 36/127/5 38/128/5 40/129/5 42/130/5 44/131/5 46/132/5 48/133/5 50/134/5 52/135/5 54/136/5
f 53/137/6 51/138/6 49/139/6 47/140/6 45/141/6 43/142/6 41/143/6 39/144/6 37/145/6 35/146/6 32/147/6 31/148/6
f 55/149/7 56/150/7 57/151/7 58/152/7
f 56/153/8 59/154/8 60/155/8 57/156/8
f 59/157/9 61/158/9 62/159/9 60/160/9
f 61/161/10 63/162/10 64/163/10 62/164/10
f 63/165/11 65/166/11 66/167/11 64/168/11
f 65/169/12 67/170/12 68/171/12 66/172/12
f 67/173/13 69/174/13 70/175/13 68/176/13
f 69/177/14 71/178/14 72/179/14 70/180/14
f 71/181/15 73/182/15 74/183/15 72/184/15
f 73/185/16 75/186/16 76/187/16 74/188/16
f 75/189/17 77/190/17 78/191/17 76/192/17
f 77/193/18 55/194/18 58/195/18 78/196/18
f 58/197/5 57/198/5 60/199/5 62/200/5 64/201/5 66/202/5 68/203/5 70/204/5 72/205/5 74/206/5 76/207/5 78/208/5
f 77/209/6 75/210/6 73/211/6 71/212/6 69/213/6 67/214/6 65/215/6 63/216/6 61/217/6 59/218/6 56/219/6 55/220/6
f 79/221/7 80/222/7 81/223/7 82/224/7
f 80/225/8 83/226/8 84/227/8 81/228/8
f 83/229/9 85/230/9 86/231/9 84/232/9
f 85/233/10 87/234/10 88/235/10 86/236/10
f 87/237/11 89/238/11 90/239/11 88/240/11
f 89/241/12 91/242/12 92/243/12 90/244/12
f 91/245/13 93/246/13 94/247/13 92/248/13
f 93/249/14 95/250/14 96/251/14 94/252/14
f 95/253/15 97/254/15 98/255/15 96/256/15
f 97/257/16 99/258/16 100/259/16 98/260/16
f 99/261/17 101/262/17 102/263/17 100/264/17
f 101/265/18 79/266/18 82/267/18 102/268/18
f 82/269/5 81/270/5 84/271/5 86/272/5 88/273/5 90/274/5 92/275/5 94/276/5 96/277/5 98/278/5 100/279/5 102/280/5
f 101/281/6 99/282/6 97/283/6 95/284/6 93/285/6 91/286/6 89/287/6 87/288/6 85/289/6 83/290/6 80/291/6 79/292/6
f 111/293/7 112/294/7 113/295/7 114/296/7
f 112/297/8 115/298/8 116/299/8 113/300/8
f 115/301/9 117/302/9 118/303/9 116/304/9
f 117/305/10 119/306/10 120/307/10 118/308/10
f 119/309/11 121/310/11 122/311/11 120/312/11
f 121/313/12 123/314/12 124/315/12 122/316/12
f 123/317/13 125/318/13 126/319/13 124/320/13
f 125/321/14 127/322/14 128/323/14 126/324/14
f 127/325/15 129/326/15 130/327/15 128/328/15
f 129/329/16 131/330/16 132/331/16 130/332/16
f 131/333/17 133/334/17 134/335/17 132/336/17
f 133/337/18 111/338/18 114/339/18 134/340/18
f 114/341/5 113/342/5 116/343/5 118/344/5 120/345/5 122/346/5 124/347/5 126/348/5 128/349/5 130/350/5 132/351/5 134/352/5
f 133/353/6 131/354/6 129/355/6 127/356/6 125/357/6 123/358/6 121/359/6 119/360/6 117/361/6 115/362/6 112/363/6 111/364/6
usemtl mat4
f 103/365/1 104/366/1 105/367/1 106/368/1
f 107/369/2 108/370/2 109/371/2 110/372/2
f 105/373/3 107/374/3 110/375/3 106/376/3
f 109/377/4 108/378/4 104/379/4 103/380/4
f 110/381/5 109/382/5 103/383/5 106/384/5
f 104/385/6 108/386/6 107/387/6 105/388/6
