mtllib materials.mtl
v 0.04824901 -0.002244949 -0.05795926
v 0.058249 -0.004924417 -0.05795926
v 0.058249 -0.004924417 -0.04081649
v 0.04824901 -0.002244949 -0.04081649
v 0.0655694 -0.01224482 -0.05795926
v 0.0655694 -0.01224482 -0.04081649
v 0.06824899 -0.02224481 -0.05795926
v 0.06824899 -0.02224481 -0.04081649
v 0.0655694 -0.0322448 -0.05795926
v 0.0655694 -0.0322448 -0.04081649
v 0.058249 -0.03956521 -0.05795926
v 0.058249 -0.03956521 -0.04081649
v 0.04824901 -0.04224467 -0.05795926
v 0.04824901 -0.04224467 -0.04081649
v 0.03824902 -0.03956521 -0.05795926
v 0.03824902 -0.03956521 -0.04081655
v 0.03092861 -0.0322448 -0.05795926
v 0.03092861 -0.0322448 -0.04081655
v 0.02824903 -0.02224481 -0.05795926
v 0.02824903 -0.02224481 -0.04081655
v 0.03092861 -0.01224482 -0.05795926
v 0.03092861 -0.01224482 -0.04081655
v 0.03824902 -0.004924417 -0.05795926
v 0.03824902 -0.004924417 -0.04081649
v 0.09824896 -0.02510178 -0.0508163
v 0.09824896 -0.0251019 0.04918367
v 0.09824872 0.004898071 0.04918367
v 0.09824896 0.004898071 -0.0508163
v -0.1054091 -0.02510178 -0.05081642
v -0.1054091 0.004898071 -0.05081636
v -0.1054091 0.004898071 0.04918367
v -0.1054091 -0.0251019 0.04918361
v -0.04358006 0.004898071 0.04918367
v -0.04358006 0.004898071 -0.05081636
v -0.0744946 0.004898071 -0.05081636
v -0.0744946 0.004898071 0.04918367
v -0.0744946 0.04989803 0.04918367
v -0.04358006 0.04989803 0.04918367
v -0.1054091 0.04989803 -0.05081636
v -0.1054091 0.04989803 0.04918367
v -0.0744946 0.04989803 -0.05081636
v -0.04358029 0.07489812 0.04918367
v -0.04358029 0.07489812 -0.05081636
v -0.04358006 0.04989803 -0.05081636
v -0.1054094 0.07489812 0.04918373
v -0.1054094 0.07489812 -0.0508163
v 0.07824898 0.004898071 -0.02081633
v 0.07824898 0.004898071 0.01918375
v 0.07824898 0.02489793 0.01918375
v 0.07824898 0.02489793 -0.02081627
v -0.03175092 0.004898071 -0.02081633
v -0.03175092 0.02489793 -0.02081633
v -0.03175092 0.02489793 0.01918375
v -0.03175092 0.004898071 0.0191837
v 0.04824877 -0.002244949 0.042041
v 0.05824876 -0.004924417 0.042041
v 0.05824876 -0.004924417 0.05918378
v 0.04824877 -0.002244949 0.05918378
v 0.06556916 -0.01224482 0.042041
v 0.06556916 -0.01224482 0.05918378
v 0.06824875 -0.02224481 0.042041
v 0.06824875 -0.02224481 0.05918378
v 0.06556916 -0.0322448 0.042041
v 0.06556916 -0.0322448 0.05918378
v 0.05824876 -0.03956521 0.042041
v 0.05824876 -0.03956521 0.05918378
v 0.04824877 -0.04224467 0.042041
v 0.04824877 -0.04224467 0.05918372
v 0.03824878 -0.03956521 0.04204094
v 0.03824878 -0.03956521 0.05918372
v 0.03092837 -0.0322448 0.042041
v 0.03092837 -0.0322448 0.05918372
v 0.02824879 -0.02224481 0.042041
v 0.02824879 -0.02224481 0.05918372
v 0.03092837 -0.01224482 0.042041
v 0.03092837 -0.01224482 0.05918378
v 0.03824878 -0.004924417 0.042041
v 0.03824878 -0.004924417 0.05918378
v -0.07175112 -0.005102158 0.04204094
v -0.06175113 -0.007781625 0.04204094
v -0.06175113 -0.007781625 0.05918372
v -0.07175112 -0.005102158 0.05918372
v -0.05443072 -0.01510203 0.04204094
v -0.05443072 -0.01510203 0.05918372
v -0.05175114 -0.02510202 0.04204094
v -0.05175114 -0.02510202 0.05918372
v -0.05443072 -0.03510201 0.04204094
v -0.05443072 -0.03510201 0.05918372
v -0.06175113 -0.04242241 0.04204094
v -0.06175113 -0.04242241 0.05918366
v -0.07175112 -0.04510188 0.04204094
v -0.07175112 -0.04510188 0.05918366
v -0.08175111 -0.04242241 0.04204088
v -0.08175111 -0.04242241 0.05918366
v -0.08907151 -0.03510201 0.04204094
v -0.08907151 -0.03510201 0.05918366
v -0.0917511 -0.02510202 0.04204094
v -0.0917511 -0.02510202 0.05918366
v -0.08907151 -0.01510203 0.04204094
v -0.08907151 -0.01510203 0.05918366
v -0.08175111 -0.007781625 0.04204094
v -0.08175111 -0.007781625 0.05918372
v -0.07175088 -0.005102158 -0.05795926
v -0.06175089 -0.007781625 -0.05795926
v -0.06175089 -0.007781625 -0.04081649
v -0.07175088 -0.005102158 -0.04081649
v -0.05443048 -0.01510203 -0.05795926
v -0.05443048 -0.01510203 -0.04081649
v -0.0517509 -0.02510202 -0.05795926
v -0.0517509 -0.02510202 -0.04081649
v -0.05443048 -0.03510201 -0.05795926
v -0.05443048 -0.03510201 -0.04081649
v -0.06175089 -0.04242241 -0.05795926
v -0.06175089 -0.04242241 -0.04081649
v -0.07175088 -0.04510188 -0.05795926
v -0.07175088 -0.04510188 -0.04081649
v -0.08175087 -0.04242241 -0.05795926
v -0.08175087 -0.04242241 -0.04081655
v -0.08907127 -0.03510201 -0.05795926
v -0.08907127 -0.03510201 -0.04081655
v -0.09175086 -0.02510202 -0.05795926
v -0.09175086 -0.02510202 -0.04081655
v -0.08907127 -0.01510203 -0.05795926
v -0.08907127 -0.01510203 -0.04081655
v -0.08175087 -0.007781625 -0.05795926
v -0.08175087 -0.007781625 -0.04081649
v 0.08733439 0.01489806 -0.04081631
v 0.08733439 0.01489806 0.03918374
v 0.08733439 0.09489799 0.03918374
v 0.08733439 0.09489799 -0.04081625
v -0.03266549 0.01489806 -0.04081631
v -0.03266549 0.09489799 -0.04081631
v -0.03266549 0.09489799 0.03918374
v -0.03266549 0.01489806 0.03918368
vn 0.2588194 0.9659258 -1.040512E-06
vn 0.7071036 0.70711 7.237144E-07
vn 0.9659246 0.2588239 3.041681E-06
vn 0.9659243 -0.2588247 -5.131732E-07
vn 0.7071052 -0.7071084 -2.064444E-06
vn 0.2588226 -0.9659249 9.68409E-07
vn -0.2588225 -0.9659249 -1.178178E-06
vn -0.7071052 -0.7071084 -9.497265E-07
vn -0.9659243 -0.2588247 2.686622E-06
vn -0.9659246 0.2588239 -4.118213E-07
vn -0.7071036 0.70711 -2.239389E-06
vn -0.2588195 0.9659257 -9.476591E-07
vn 1.748456E-07 5.960463E-08 -1
vn -1.748456E-07 -5.960463E-08 1
vn 1 -3.057097E-14 3.496911E-07
vn -1 3.057097E-14 -3.496911E-07
vn 9.171291E-14 -1 -3.496911E-07
vn -9.171291E-14 1 3.496911E-07
vn 3.496911E-07 3.496911E-07 -1
vn -3.496911E-07 -3.496911E-07 1
vn 3.211071E-07 -6.60129E-07 1
vn -1 -3.897846E-06 -2.006802E-07
vn -2.985137E-07 6.60129E-07 -1
vn 1 4.011512E-06 2.006803E-07
vn -9.171291E-14 1 3.496911E-07
vn -1 -3.897846E-06 -2.006802E-07
vn -2.985137E-07 6.60129E-07 -1
vn 3.211071E-07 -6.60129E-07 1
vn -2.985137E-07 6.60129E-07 -1
vn 3.211071E-07 -6.60129E-07 1
vn 1 -3.057097E-14 3.496911E-07
vn -1 3.057097E-14 -3.496911E-07
vn 9.171291E-14 -1 -3.496911E-07
vn -9.171291E-14 1 3.496911E-07
vn 3.496911E-07 3.496911E-07 -1
vn -3.496911E-07 -3.496911E-07 1
vn 0.2588196 0.9659258 -9.253651E-07
vn 0.7071037 0.7071099 8.080084E-07
vn 0.9659246 0.2588237 3.072535E-06
vn 0.9659243 -0.2588249 -5.440276E-07
vn 0.707105 -0.7071086 -2.148738E-06
vn 0.2588224 -0.9659249 8.532618E-07
vn -0.2588227 -0.9659249 -1.293325E-06
vn -0.7071053 -0.7071083 -1.03402E-06
vn -0.9659244 -0.2588246 2.655767E-06
vn -0.9659245 0.2588241 -3.80967E-07
vn -0.7071035 0.7071102 -2.155095E-06
vn -0.2588193 0.9659258 -8.325117E-07
vn 1.748456E-07 1.788139E-07 -1
vn -1.748456E-07 -1.788139E-07 1
vn 0.2588196 0.9659258 -9.253651E-07
vn 0.7071037 0.7071099 8.080084E-07
vn 0.9659246 0.2588237 3.072535E-06
vn 0.9659243 -0.2588249 -5.440276E-07
vn 0.707105 -0.7071086 -2.148738E-06
vn 0.2588224 -0.9659249 8.532618E-07
vn -0.2588227 -0.9659249 -1.293325E-06
vn -0.7071053 -0.7071083 -1.03402E-06
vn -0.9659244 -0.2588246 2.655767E-06
vn -0.9659245 0.2588241 -3.80967E-07
vn -0.7071035 0.7071102 -2.155095E-06
vn -0.2588193 0.9659258 -8.325117E-07
vn 1.748456E-07 1.788139E-07 -1
vn -1.748456E-07 -1.788139E-07 1
vn 0.2588194 0.9659258 -1.040512E-06
vn 0.7071036 0.70711 7.237144E-07
vn 0.9659246 0.2588239 3.041681E-06
vn 0.9659243 -0.2588247 -5.131732E-07
vn 0.7071052 -0.7071084 -2.064444E-06
vn 0.2588226 -0.9659249 9.68409E-07
vn -0.2588225 -0.9659249 -1.178178E-06
vn -0.7071052 -0.7071084 -9.497265E-07
vn -0.9659243 -0.2588247 2.686622E-06
vn -0.9659246 0.2588239 -4.118213E-07
vn -0.7071036 0.70711 -2.239389E-06
vn -0.2588195 0.9659257 -9.476591E-07
vn 1.748456E-07 5.960463E-08 -1
vn -1.748456E-07 -5.960463E-08 1
vn 1 -3.057097E-14 3.496911E-07
vn -1 3.057097E-14 -3.496911E-07
vn 9.171291E-14 -1 -3.496911E-07
vn -9.171291E-14 1 3.496911E-07
vn 3.496911E-07 3.496911E-07 -1
vn -3.496911E-07 -3.496911E-07 1
vt 0.01418625 -0.2504326
vt 0.01377975 -0.2494804
vt 0.01220315 -0.2501535
vt 0.01260965 -0.2511057
vt 0.1008132 -0.2198095
vt 0.1000774 -0.2190811
vt 0.09887139 -0.2202994
vt 0.09960712 -0.2210278
vt 0.1776306 0.01078722
vt 0.1767537 0.0102369
vt 0.177665 0.008784881
vt 0.1785419 0.009335203
vt 0.09609415 0.002987663
vt 0.09564504 0.002054869
vt 0.09718962 0.001311213
vt 0.09763872 0.002244007
vt 0.05555774 -0.1022595
vt 0.05522737 -0.1032406
vt 0.05685202 -0.1037877
vt 0.05718238 -0.1028065
vt 0.02485463 -0.198892
vt 0.02453369 -0.1998763
vt 0.02616352 -0.2004077
vt 0.02648445 -0.1994235
vt -0.01378056 -0.2494805
vt -0.01418706 -0.2504326
vt -0.01261047 -0.2511057
vt -0.01220396 -0.2501536
vt -0.1000781 -0.2190807
vt -0.1008138 -0.219809
vt -0.0996078 -0.2210273
vt -0.09887207 -0.2202989
vt -0.1767533 0.01023894
vt -0.1776302 0.01078927
vt -0.1785414 0.009337259
vt -0.1776645 0.00878693
vt -0.09564532 0.002054819
vt -0.09609442 0.002987612
vt -0.09763899 0.002243956
vt -0.09718989 0.001311163
vt -0.05522802 -0.1032415
vt -0.05555838 -0.1022603
vt -0.05718303 -0.1028074
vt -0.05685266 -0.1037885
vt -0.0245335 -0.1998768
vt -0.02485443 -0.1988925
vt -0.02648426 -0.1994239
vt -0.02616333 -0.2004082
vt -0.1909761 -0.1471253
vt -0.1906487 -0.1481074
vt -0.1898741 -0.1487943
vt -0.1888599 -0.1490019
vt -0.1878777 -0.1486745
vt -0.1871908 -0.1478999
vt -0.1869833 -0.1468856
vt -0.1873107 -0.1459035
vt -0.1880853 -0.1452166
vt -0.1890995 -0.1450091
vt -0.1900817 -0.1453364
vt -0.1907685 -0.146111
vt 0.1907685 -0.146111
vt 0.1900817 -0.1453364
vt 0.1890995 -0.1450091
vt 0.1880853 -0.1452166
vt 0.1873107 -0.1459035
vt 0.1869833 -0.1468856
vt 0.1871908 -0.1478999
vt 0.1878777 -0.1486745
vt 0.1888599 -0.1490019
vt 0.1898741 -0.1487943
vt 0.1906487 -0.1481074
vt 0.1909761 -0.1471253
vt 0.1298487 0.03382798
vt 0.137986 0.02801558
vt 0.1397297 0.03045678
vt 0.1315924 0.03626917
vt -0.1298487 0.03382798
vt -0.1315924 0.03626917
vt -0.1397298 0.03045678
vt -0.137986 0.02801558
vt 0.01002276 -0.2276324
vt 0.003172985 -0.2468118
vt 0.01259041 -0.2501751
vt 0.01944018 -0.2309958
vt -0.01002276 -0.2276324
vt -0.01944017 -0.2309958
vt -0.01466995 -0.2443524
vt -0.005252528 -0.2409891
vt -0.1864881 -0.1426611
vt -0.1891713 -0.1413194
vt -0.1955141 -0.154005
vt -0.1968967 -0.1567701
vt -0.1982792 -0.1595352
vt -0.1955959 -0.1608768
vt 0.1864881 -0.1426611
vt 0.1955959 -0.1608768
vt 0.1982792 -0.1595352
vt 0.1968967 -0.1567701
vt 0.1955141 -0.154005
vt 0.1891713 -0.1413195
vt 0.1955142 -0.1540051
vt 0.1968967 -0.1567702
vt 0.2009216 -0.1547577
vt 0.1995391 -0.1519926
vt -0.1397303 0.03045705
vt -0.131593 0.03626946
vt -0.1342086 0.03993125
vt -0.1423459 0.03411883
vt -0.1982792 -0.1595352
vt -0.1968967 -0.1567702
vt -0.2009216 -0.1547577
vt -0.2023042 -0.1575228
vt 0.131593 0.03626945
vt 0.1397303 0.03045703
vt 0.1423459 0.03411882
vt 0.143799 0.03615315
vt 0.1356617 0.04196557
vt 0.1342086 0.03993123
vt -0.01466994 -0.2443525
vt -0.01259041 -0.2501752
vt -0.003172985 -0.2468118
vt -0.005252517 -0.2409891
vt -0.1342086 0.03993125
vt -0.1356617 0.04196558
vt -0.143799 0.03615316
vt -0.1423459 0.03411883
vt -0.1995391 -0.1519926
vt -0.2017751 -0.1508746
vt -0.2045402 -0.1564048
vt -0.2023042 -0.1575228
vt -0.2009216 -0.1547577
vt 0.2023042 -0.1575228
vt 0.2045402 -0.1564048
vt 0.2017752 -0.1508746
vt 0.1995391 -0.1519926
vt 0.2009216 -0.1547577
vt -0.1968967 -0.1567702
vt -0.1955141 -0.1540051
vt -0.1995391 -0.1519926
vt -0.2009216 -0.1547577
vt 0.1968967 -0.1567702
vt 0.1982792 -0.1595353
vt 0.2023042 -0.1575228
vt 0.2009216 -0.1547577
vt 0.1340336 0.03452545
vt 0.1372885 0.03220049
vt 0.138451 0.03382795
vt 0.1351961 0.0361529
vt -0.1340336 0.03452545
vt -0.1351961 0.0361529
vt -0.138451 0.03382794
vt -0.1372885 0.03220049
vt 0.01217531 -0.2305249
vt 0.008475614 -0.2408841
vt 0.01224258 -0.2422294
vt 0.01594229 -0.2318703
vt -0.01217532 -0.2305249
vt -0.01594229 -0.2318703
vt -0.01224259 -0.2422294
vt -0.008475613 -0.2408841
vt -0.1900658 -0.1431083
vt -0.1918546 -0.1422139
vt -0.196774 -0.1520526
vt -0.1949851 -0.152947
vt 0.1900658 -0.1431083
vt 0.1949851 -0.152947
vt 0.196774 -0.1520526
vt 0.1918546 -0.1422139
vt 0.004989402 -0.2543591
vt 0.0045829 -0.2534069
vt 0.003006301 -0.2540801
vt 0.003412803 -0.2550322
vt 0.09377792 -0.2269161
vt 0.09304219 -0.2261878
vt 0.09183615 -0.2274061
vt 0.09257187 -0.2281344
vt 0.1829463 0.002317111
vt 0.1820694 0.001766787
vt 0.1829807 0.0003147709
vt 0.1838576 0.0008650942
vt 0.1051042 -0.001350394
vt 0.1046551 -0.002283188
vt 0.1061997 -0.003026844
vt 0.1066488 -0.00209405
vt 0.0650349 -0.1054506
vt 0.06470454 -0.1064318
vt 0.06632919 -0.1069788
vt 0.06665955 -0.1059977
vt 0.03436199 -0.2019921
vt 0.03404106 -0.2029763
vt 0.03567088 -0.2035077
vt 0.03599182 -0.2025235
vt -0.004583727 -0.253407
vt -0.004990237 -0.2543592
vt -0.00341364 -0.2550323
vt -0.003007135 -0.2540801
vt -0.0930429 -0.2261873
vt -0.09377863 -0.2269156
vt -0.09257259 -0.2281339
vt -0.09183686 -0.2274056
vt -0.182069 0.001768854
vt -0.1829459 0.002319183
vt -0.1838572 0.0008671766
vt -0.1829803 0.000316848
vt -0.1046554 -0.00228325
vt -0.1051045 -0.001350457
vt -0.1066491 -0.002094115
vt -0.1062 -0.003026905
vt -0.06470518 -0.1064327
vt -0.06503554 -0.1054515
vt -0.0666602 -0.1059986
vt -0.06632983 -0.1069797
vt -0.03404087 -0.2029768
vt -0.0343618 -0.2019925
vt -0.03599163 -0.2025239
vt -0.0356707 -0.2035082
vt -0.1909761 -0.1471253
vt -0.1906487 -0.1481074
vt -0.1898741 -0.1487943
vt -0.1888599 -0.1490019
vt -0.1878777 -0.1486745
vt -0.1871909 -0.1478999
vt -0.1869833 -0.1468856
vt -0.1873107 -0.1459035
vt -0.1880853 -0.1452166
vt -0.1890995 -0.1450091
vt -0.1900817 -0.1453364
vt -0.1907685 -0.146111
vt 0.1907685 -0.146111
vt 0.1900817 -0.1453364
vt 0.1890995 -0.1450091
vt 0.1880853 -0.1452166
vt 0.1873107 -0.1459035
vt 0.1869833 -0.1468856
vt 0.1871909 -0.1478999
vt 0.1878777 -0.1486745
vt 0.1888599 -0.1490019
vt 0.1898741 -0.1487943
vt 0.1906487 -0.1481074
vt 0.1909761 -0.1471253
vt 0.009511635 -0.2649513
vt 0.009105133 -0.2639991
vt 0.007528534 -0.2646722
vt 0.007935035 -0.2656244
vt 0.09966455 -0.2327437
vt 0.09892882 -0.2320153
vt 0.09772278 -0.2332336
vt 0.09845851 -0.2339619
vt 0.1853433 0.003821376
vt 0.1844664 0.003271053
vt 0.1853777 0.001819036
vt 0.1862545 0.002369359
vt 0.1036371 -0.004397491
vt 0.1031881 -0.005330286
vt 0.1047326 -0.006073941
vt 0.1051817 -0.005141147
vt 0.06226265 -0.1136838
vt 0.06193228 -0.1146649
vt 0.06355692 -0.1152119
vt 0.0638873 -0.1142308
vt 0.03074588 -0.2130825
vt 0.03042495 -0.2140667
vt 0.03205477 -0.2145981
vt 0.0323757 -0.2136139
vt -0.009105977 -0.2639992
vt -0.009512486 -0.2649513
vt -0.007935889 -0.2656244
vt -0.007529384 -0.2646723
vt -0.09892955 -0.2320148
vt -0.09966527 -0.2327431
vt -0.09845923 -0.2339614
vt -0.09772351 -0.2332331
vt -0.1844659 0.003273195
vt -0.1853428 0.003823524
vt -0.1862541 0.002371518
vt -0.1853772 0.001821189
vt -0.1031883 -0.005330342
vt -0.1036374 -0.004397548
vt -0.105182 -0.005141204
vt -0.1047329 -0.006073997
vt -0.06193294 -0.1146658
vt -0.06226332 -0.1136847
vt -0.06388796 -0.1142317
vt -0.06355759 -0.1152128
vt -0.03042475 -0.2140672
vt -0.03074569 -0.2130829
vt -0.03237551 -0.2136144
vt -0.03205458 -0.2145986
vt -0.1960871 -0.1579862
vt -0.1957597 -0.1589683
vt -0.1949851 -0.1596552
vt -0.1939709 -0.1598628
vt -0.1929887 -0.1595354
vt -0.1923019 -0.1587608
vt -0.1920943 -0.1577465
vt -0.1924217 -0.1567644
vt -0.1931963 -0.1560775
vt -0.1942105 -0.15587
vt -0.1951927 -0.1561973
vt -0.1958795 -0.1569719
vt 0.1958795 -0.1569719
vt 0.1951927 -0.1561973
vt 0.1942105 -0.15587
vt 0.1931963 -0.1560775
vt 0.1924217 -0.1567644
vt 0.1920943 -0.1577465
vt 0.1923019 -0.1587608
vt 0.1929887 -0.1595354
vt 0.1939709 -0.1598628
vt 0.1949851 -0.1596552
vt 0.1957597 -0.1589683
vt 0.1960871 -0.1579862
vt 0.01870848 -0.2610247
vt 0.01830197 -0.2600726
vt 0.01672538 -0.2607457
vt 0.01713188 -0.2616978
vt 0.1066998 -0.225637
vt 0.1059641 -0.2249087
vt 0.104758 -0.226127
vt 0.1054937 -0.2268553
vt 0.1800276 0.01229148
vt 0.1791507 0.01174116
vt 0.180062 0.01028914
vt 0.1809388 0.01083946
vt 0.09462707 -5.943492E-05
vt 0.09417797 -0.0009922289
vt 0.09572254 -0.001735885
vt 0.09617165 -0.0008030912
vt 0.05278549 -0.1104926
vt 0.05245513 -0.1114737
vt 0.05407978 -0.1120208
vt 0.05441014 -0.1110397
vt 0.02123852 -0.2099824
vt 0.02091759 -0.2109667
vt 0.02254742 -0.2114981
vt 0.02286835 -0.2105139
vt -0.0183028 -0.2600726
vt -0.01870931 -0.2610248
vt -0.01713272 -0.2616979
vt -0.01672621 -0.2607457
vt -0.1059647 -0.2249082
vt -0.1067005 -0.2256365
vt -0.1054944 -0.2268548
vt -0.1047587 -0.2261265
vt -0.1791502 0.01174327
vt -0.1800271 0.0122936
vt -0.1809383 0.0108416
vt -0.1800615 0.01029127
vt -0.09417825 -0.0009922734
vt -0.09462737 -5.948006E-05
vt -0.09617193 -0.0008031357
vt -0.09572283 -0.001735929
vt -0.05245579 -0.1114746
vt -0.05278615 -0.1104935
vt -0.0544108 -0.1110405
vt -0.05408043 -0.1120217
vt -0.02091739 -0.2109672
vt -0.02123832 -0.2099829
vt -0.02286815 -0.2105144
vt -0.02254722 -0.2114986
vt -0.1960871 -0.1579862
vt -0.1957597 -0.1589683
vt -0.1949851 -0.1596552
vt -0.1939708 -0.1598627
vt -0.1929887 -0.1595354
vt -0.1923018 -0.1587608
vt -0.1920943 -0.1577465
vt -0.1924217 -0.1567644
vt -0.1931963 -0.1560775
vt -0.1942105 -0.1558699
vt -0.1951927 -0.1561973
vt -0.1958795 -0.1569719
vt 0.1958795 -0.1569719
vt 0.1951927 -0.1561973
vt 0.1942105 -0.1558699
vt 0.1931963 -0.1560775
vt 0.1924217 -0.1567644
vt 0.1920943 -0.1577465
vt 0.1923018 -0.1587608
vt 0.1929887 -0.1595354
vt 0.1939708 -0.1598627
vt 0.1949851 -0.1596552
vt 0.1957597 -0.1589683
vt 0.1960871 -0.1579862
vt 0.1329874 0.03650166
vt 0.1394973 0.03185175
vt 0.1441472 0.03836161
vt 0.1376373 0.04301151
vt -0.1329874 0.03650165
vt -0.1376373 0.04301152
vt -0.1441472 0.0383616
vt -0.1394973 0.03185175
vt 0.01059741 -0.2289966
vt 0.006561371 -0.2402975
vt 0.0140953 -0.2429882
vt 0.01813134 -0.2316873
vt -0.01059741 -0.2289966
vt -0.01813134 -0.2316873
vt -0.01409531 -0.2429882
vt -0.006561368 -0.2402975
vt -0.1905539 -0.1418485
vt -0.1977093 -0.1382708
vt -0.2030758 -0.1490039
vt -0.1959204 -0.1525816
vt 0.1905539 -0.1418484
vt 0.1959204 -0.1525816
vt 0.2030758 -0.1490039
vt 0.1977093 -0.1382708
o group597209792
g mesh597209792
usemtl mat17
f 4/4/1 3/3/1 2/2/1 1/1/1
f 3/8/2 6/7/2 5/6/2 2/5/2
f 6/12/3 8/11/3 7/10/3 5/9/3
f 8/16/4 10/15/4 9/14/4 7/13/4
f 10/20/5 12/19/5 11/18/5 9/17/5
f 12/24/6 14/23/6 13/22/6 11/21/6
f 14/28/7 16/27/7 15/26/7 13/25/7
f 16/32/8 18/31/8 17/30/8 15/29/8
f 18/36/9 20/35/9 19/34/9 17/33/9
f 20/40/10 22/39/10 21/38/10 19/37/10
f 22/44/11 24/43/11 23/42/11 21/41/11
f 24/48/12 4/47/12 1/46/12 23/45/12
f 1/60/13 2/59/13 5/58/13 7/57/13 9/56/13 11/55/13 13/54/13 15/53/13 17/52/13 19/51/13 21/50/13 23/49/13
f 24/72/14 22/71/14 20/70/14 18/69/14 16/68/14 14/67/14 12/66/14 10/65/14 8/64/14 6/63/14 3/62/14 4/61/14
o group1760482254
g mesh1760482254
usemtl mat15
f 28/76/15 27/75/15 26/74/15 25/73/15
f 32/80/16 31/79/16 30/78/16 29/77/16
f 26/84/17 32/83/17 29/82/17 25/81/17
f 34/88/18 33/87/18 27/86/18 28/85/18
f 29/94/19 30/93/19 35/92/19 34/91/19 28/90/19 25/89/19
f 27/100/20 33/99/20 36/98/20 31/97/20 32/96/20 26/95/20
f 38/104/21 37/103/21 36/102/21 33/101/21
f 44/118/24 43/117/24 42/116/24 38/115/24 33/114/24 34/113/24
f 43/122/25 46/121/25 45/120/25 42/119/25
f 40/126/26 45/125/26 46/124/26 39/123/26
f 41/131/27 39/130/27 46/129/27 43/128/27 44/127/27
f 37/136/28 38/135/28 42/134/28 45/133/28 40/132/28
f 41/140/29 44/139/29 34/138/29 35/137/29
usemtl mat17
f 40/108/22 39/107/22 30/106/22 31/105/22
f 39/112/23 41/111/23 35/110/23 30/109/23
f 37/144/30 40/143/30 31/142/30 36/141/30
o group81506427
g mesh81506427
usemtl mat12
f 50/148/31 49/147/31 48/146/31 47/145/31
f 54/152/32 53/151/32 52/150/32 51/149/32
f 48/156/33 54/155/33 51/154/33 47/153/33
f 52/160/34 53/159/34 49/158/34 50/157/34
f 51/164/35 52/163/35 50/162/35 47/161/35
f 49/168/36 53/167/36 54/166/36 48/165/36
o group1922777031
g mesh1922777031
usemtl mat17
f 58/172/37 57/171/37 56/170/37 55/169/37
f 57/176/38 60/175/38 59/174/38 56/173/38
f 60/180/39 62/179/39 61/178/39 59/177/39
f 62/184/40 64/183/40 63/182/40 61/181/40
f 64/188/41 66/187/41 65/186/41 63/185/41
f 66/192/42 68/191/42 67/190/42 65/189/42
f 68/196/43 70/195/43 69/194/43 67/193/43
f 70/200/44 72/199/44 71/198/44 69/197/44
f 72/204/45 74/203/45 73/202/45 71/201/45
f 74/208/46 76/207/46 75/206/46 73/205/46
f 76/212/47 78/211/47 77/210/47 75/209/47
f 78/216/48 58/215/48 55/214/48 77/213/48
f 55/228/49 56/227/49 59/226/49 61/225/49 63/224/49 65/223/49 67/222/49 69/221/49 71/220/49 73/219/49 75/218/49 77/217/49
f 78/240/50 76/239/50 74/238/50 72/237/50 70/236/50 68/235/50 66/234/50 64/233/50 62/232/50 60/231/50 57/230/50 58/229/50
o group1720986182
g mesh1720986182
usemtl mat17
f 82/244/51 81/243/51 80/242/51 79/241/51
f 81/248/52 84/247/52 83/246/52 80/245/52
f 84/252/53 86/251/53 85/250/53 83/249/53
f 86/256/54 88/255/54 87/254/54 85/253/54
f 88/260/55 90/259/55 89/258/55 87/257/55
f 90/264/56 92/263/56 91/262/56 89/261/56
f 92/268/57 94/267/57 93/266/57 91/265/57
f 94/272/58 96/271/58 95/270/58 93/269/58
f 96/276/59 98/275/59 97/274/59 95/273/59
f 98/280/60 100/279/60 99/278/60 97/277/60
f 100/284/61 102/283/61 101/282/61 99/281/61
f 102/288/62 82/287/62 79/286/62 101/285/62
f 79/300/63 80/299/63 83/298/63 85/297/63 87/296/63 89/295/63 91/294/63 93/293/63 95/292/63 97/291/63 99/290/63 101/289/63
f 102/312/64 100/311/64 98/310/64 96/309/64 94/308/64 92/307/64 90/306/64 88/305/64 86/304/64 84/303/64 81/302/64 82/301/64
o group914940321
g mesh914940321
usemtl mat17
f 106/316/65 105/315/65 104/314/65 103/313/65
f 105/320/66 108/319/66 107/318/66 104/317/66
f 108/324/67 110/323/67 109/322/67 107/321/67
f 110/328/68 112/327/68 111/326/68 109/325/68
f 112/332/69 114/331/69 113/330/69 111/329/69
f 114/336/70 116/335/70 115/334/70 113/333/70
f 116/340/71 118/339/71 117/338/71 115/337/71
f 118/344/72 120/343/72 119/342/72 117/341/72
f 120/348/73 122/347/73 121/346/73 119/345/73
f 122/352/74 124/351/74 123/350/74 121/349/74
f 124/356/75 126/355/75 125/354/75 123/353/75
f 126/360/76 106/359/76 103/358/76 125/357/76
f 103/372/77 104/371/77 107/370/77 109/369/77 111/368/77 113/367/77 115/366/77 117/365/77 119/364/77 121/363/77 123/362/77 125/361/77
f 126/384/78 124/383/78 122/382/78 120/381/78 118/380/78 116/379/78 114/378/78 112/377/78 110/376/78 108/375/78 105/374/78 106/373/78
o group309759291
g mesh309759291
usemtl mat4
f 130/388/79 129/387/79 128/386/79 127/385/79
f 134/392/80 133/391/80 132/390/80 131/389/80
f 128/396/81 134/395/81 131/394/81 127/393/81
f 132/400/82 133/399/82 129/398/82 130/397/82
f 131/404/83 132/403/83 130/402/83 127/401/83
f 129/408/84 133/407/84 134/406/84 128/405/84
